<?xml version="1.0" encoding="UTF-8" standalone="no"?>
<svg
   version="1.0"
   x="0px"
   y="0px"
   viewBox="0 0 54.053238 62.090454"
   enable-background="new 0 0 100 100"
   xml:space="preserve"
   id="svg77"
   sodipodi:docname="wind_up.svg"
   width="54.053238"
   height="62.090454"
   inkscape:version="1.4.2 (ebf0e940d0, 2025-05-08)"
   xmlns:inkscape="http://www.inkscape.org/namespaces/inkscape"
   xmlns:sodipodi="http://sodipodi.sourceforge.net/DTD/sodipodi-0.dtd"
   xmlns="http://www.w3.org/2000/svg"
   xmlns:svg="http://www.w3.org/2000/svg"><defs
     id="defs77" /><sodipodi:namedview
     id="namedview77"
     pagecolor="#ffffff"
     bordercolor="#999999"
     borderopacity="1"
     inkscape:showpageshadow="2"
     inkscape:pageopacity="0"
     inkscape:pagecheckerboard="0"
     inkscape:deskcolor="#d1d1d1"
     inkscape:zoom="5.448"
     inkscape:cx="24.779736"
     inkscape:cy="42.859765"
     inkscape:window-width="1440"
     inkscape:window-height="932"
     inkscape:window-x="0"
     inkscape:window-y="0"
     inkscape:window-maximized="1"
     inkscape:current-layer="svg77" /><path
     d="m 40.858097,44.448053 -0.02016,-1.164775 C 40.788557,40.429775 38.413101,38.135147 35.5596,38.18453 l -2.222094,0.03846 -0.167522,-9.679789 c 1.538981,0.56652 3.201399,0.875911 4.939541,0.845829 7.532991,-0.130368 13.533559,-6.34229 13.40319,-13.875284 C 51.382352,7.9807461 45.17043,1.9801788 37.637435,2.1105478 32.996377,2.1908677 28.942209,4.5842169 26.540621,8.1690113 24.015656,4.6702624 19.881874,2.4178323 15.240814,2.4981524 7.7078181,2.6285213 1.7072517,8.8404425 1.8376207,16.373437 c 0.1303689,7.532996 6.3422906,13.533565 13.8752853,13.403196 1.444007,-0.02499 2.829159,-0.277282 4.127925,-0.715593 l 0.162553,9.392712 -1.609507,0.02786 c -2.853502,0.04938 -5.148131,2.424835 -5.098748,5.278337 l 0.02049,1.183601 C 7.089838,45.94024 2.4179712,49.952701 2.4989693,54.632976 l 0.041739,2.411908 c 0.028764,1.662059 1.9510208,2.976727 4.2931199,2.936193 L 48.028426,59.268148 c 2.3421,-0.04053 4.217715,-1.420928 4.188951,-3.082988 l -0.04175,-2.411908 c -0.08172,-4.722635 -4.978684,-8.593814 -11.317532,-9.325199 z m -25.285469,-22.777 c -3.056652,0.0529 -5.5773272,-2.382012 -5.6302267,-5.438664 -0.052905,-3.056653 2.3820127,-5.577327 5.4386647,-5.630227 3.056652,-0.0529 5.577327,2.382013 5.630226,5.438664 0.05289,3.056652 -2.382796,5.577341 -5.438664,5.630227 z M 37.777686,10.214558 c 3.056653,-0.0529 5.577328,2.382012 5.630228,5.438664 0.05289,3.056652 -2.382013,5.577327 -5.438665,5.630226 -3.056652,0.0529 -5.577327,-2.382012 -5.630227,-5.438664 -0.0529,-3.056652 2.382796,-5.57734 5.438664,-5.630226 z"
     id="path76"
     style="display:inline;fill:#e0e0e0;fill-opacity:1;stroke-width:0.784477" /></svg>
