<?xml version="1.0" encoding="UTF-8" standalone="no"?>
<svg
   version="1.1"
   viewBox="-5 -10 85.745598 85.710602"
   id="svg2"
   sodipodi:docname="abacus_2.svg"
   width="85.745598"
   height="85.710602"
   inkscape:version="1.4.2 (ebf0e940d0, 2025-05-08)"
   xmlns:inkscape="http://www.inkscape.org/namespaces/inkscape"
   xmlns:sodipodi="http://sodipodi.sourceforge.net/DTD/sodipodi-0.dtd"
   xmlns="http://www.w3.org/2000/svg"
   xmlns:svg="http://www.w3.org/2000/svg">
  <defs
     id="defs2" />
  <sodipodi:namedview
     id="namedview2"
     pagecolor="#ffffff"
     bordercolor="#999999"
     borderopacity="1"
     inkscape:showpageshadow="2"
     inkscape:pageopacity="0"
     inkscape:pagecheckerboard="0"
     inkscape:deskcolor="#d1d1d1"
     inkscape:zoom="5.0444444"
     inkscape:cx="42.819383"
     inkscape:cy="50.451542"
     inkscape:window-width="1440"
     inkscape:window-height="932"
     inkscape:window-x="0"
     inkscape:window-y="0"
     inkscape:window-maximized="1"
     inkscape:current-layer="svg2" />
  <path
     d="m 74.631931,-7.2258024 c -1.83761,0 -3.33918,1.5015694 -3.33918,3.3391799 V 10.942019 H 64.040793 C 62.908279,7.6685882 60.032991,5.1295283 56.595234,4.4645542 51.769075,3.5402495 46.939549,6.090327 45.203695,10.945667 h -7.94976 C 36.183523,7.9389736 33.746687,5.5021382 30.608402,4.6655428 25.712846,3.3101554 20.382205,5.6190464 18.482679,10.942019 H 4.4536904 V -3.8866225 c 0,-1.8376105 -1.5015695,-3.3391799 -3.33918,-3.3391799 -1.83761054,0 -3.33918,1.5015694 -3.33918,3.3391799 V 69.597222 c 0,1.870532 1.50156946,3.33918 3.33918,3.33918 H 74.63109 c 1.83761,0 3.33918,-1.468648 3.33918,-3.33918 V -3.8866225 c 0,-1.8376105 -1.50157,-3.3391799 -3.33918,-3.3391799 z M 71.289104,66.258042 H 4.4540645 V 48.085825 h 3.9748802 c 1.0704119,3.072536 3.6753143,5.512925 6.8135993,6.345967 4.983191,1.293285 10.243968,-1.231184 11.99011,-6.345967 h 7.916839 c 1.070412,3.072536 3.675314,5.512925 6.813599,6.345967 4.851692,1.25681 10.20001,-1.096038 11.990109,-6.345967 h 17.335155 z m 0,-24.850016 H 54.023159 c -1.169082,-3.372101 -4.175775,-5.980558 -7.715944,-6.546861 -3.306352,-0.566276 -6.51394,0.467633 -8.819277,2.805798 -1.070412,1.070412 -1.804783,2.371086 -2.305243,3.741063 h -7.884012 c -1.169082,-3.372101 -4.175775,-5.980558 -7.715944,-6.546861 -4.592343,-0.789131 -9.28691,1.53075 -11.121247,6.546861 H 4.4536904 V 17.624214 H 18.482679 c 1.103334,3.138284 3.675315,5.611595 6.915824,6.411715 5.699324,1.139902 10.280444,-1.79384 11.891907,-6.411715 h 7.884011 c 1.311524,3.766596 4.851692,6.682007 9.450863,6.682007 4.033334,0 7.865773,-2.323575 9.385393,-6.682007 h 7.281233 z"
     id="path1"
     style="stroke-width:0.935266;fill:#e0e0e0;fill-opacity:1" />
</svg>
