<?xml version="1.0" encoding="UTF-8" standalone="no"?>
<svg
   viewBox="0 0 58 58.000023"
   x="0px"
   y="0px"
   version="1.1"
   id="svg2"
   sodipodi:docname="abacus.svg"
   width="58"
   height="58.000023"
   inkscape:version="1.4.2 (ebf0e940d0, 2025-05-08)"
   xmlns:inkscape="http://www.inkscape.org/namespaces/inkscape"
   xmlns:sodipodi="http://sodipodi.sourceforge.net/DTD/sodipodi-0.dtd"
   xmlns="http://www.w3.org/2000/svg"
   xmlns:svg="http://www.w3.org/2000/svg">
  <defs
     id="defs2" />
  <sodipodi:namedview
     id="namedview2"
     pagecolor="#ffffff"
     bordercolor="#999999"
     borderopacity="1"
     inkscape:showpageshadow="2"
     inkscape:pageopacity="0"
     inkscape:pagecheckerboard="0"
     inkscape:deskcolor="#d1d1d1"
     inkscape:zoom="8.5125"
     inkscape:cx="28.898678"
     inkscape:cy="36.945668"
     inkscape:window-width="1440"
     inkscape:window-height="932"
     inkscape:window-x="0"
     inkscape:window-y="0"
     inkscape:window-maximized="1"
     inkscape:current-layer="svg2" />
  <g
     data-name="Layer 48"
     id="g1"
     transform="matrix(0.97974582,0,0,0.97974582,-2.3518662,-2.3518659)"
     style="fill:#e0e0e0;fill-opacity:1">
    <path
       d="m 57.12,3 a 3.88,3.88 0 0 0 -3.88,3.88 v 6.26 h -4.79 v -0.07 a 3.79,3.79 0 0 0 -7.57,0 v 0.07 H 36 v -0.07 a 3.79,3.79 0 0 0 -7.58,0 v 0.07 H 23.5 v -0.07 a 3.79,3.79 0 0 0 -7.57,0 v 0.07 H 10.76 V 6.88 A 3.88,3.88 0 0 0 3,6.88 v 50.24 a 3.83,3.83 0 0 0 0.84,2.38 v 0.21 H 4 A 3.83,3.83 0 0 0 6.88,61 3.88,3.88 0 0 0 10.76,57.12 v -6.26 h 5.17 v 0.07 a 3.79,3.79 0 0 0 7.57,0 v -0.07 h 4.9 v 0.07 a 3.79,3.79 0 0 0 7.58,0 v -0.07 h 4.9 v 0.07 a 3.79,3.79 0 0 0 7.57,0 v -0.07 h 4.79 v 6.26 a 3.88,3.88 0 0 0 7.76,0 V 6.88 A 3.88,3.88 0 0 0 57.12,3 Z m -3.88,45.86 h -4.79 v -0.07 a 3.79,3.79 0 1 0 -7.57,0 v 0.07 H 36 v -0.07 a 3.79,3.79 0 1 0 -7.58,0 v 0.07 H 23.5 v -0.07 a 3.79,3.79 0 1 0 -7.57,0 v 0.07 H 10.76 V 33 h 5.17 v 0.07 a 3.79,3.79 0 1 0 7.57,0 V 33 h 4.9 v 0.07 a 3.79,3.79 0 1 0 7.58,0 V 33 h 4.9 v 0.07 a 3.79,3.79 0 1 0 7.57,0 V 33 h 4.79 z m 0,-17.86 h -4.79 v -0.07 a 3.79,3.79 0 1 0 -7.57,0 V 31 H 36 v -0.07 a 3.79,3.79 0 1 0 -7.58,0 V 31 H 23.5 v -0.07 a 3.79,3.79 0 1 0 -7.57,0 V 31 H 10.76 V 15.14 h 5.17 v 0.07 a 3.79,3.79 0 1 0 7.57,0 v -0.07 h 4.9 v 0.07 a 3.79,3.79 0 1 0 7.58,0 v -0.07 h 4.9 v 0.07 a 3.79,3.79 0 1 0 7.57,0 v -0.07 h 4.79 z"
       id="path1"
       style="fill:#e0e0e0;fill-opacity:1" />
  </g>
</svg>
