<?xml version="1.0" encoding="UTF-8" standalone="no"?>
<svg
   version="1.1"
   x="0px"
   y="0px"
   viewBox="0 0 32 24"
   xml:space="preserve"
   id="svg3"
   sodipodi:docname="music_box.svg"
   width="32"
   height="24"
   inkscape:version="1.4.2 (ebf0e940d0, 2025-05-08)"
   xmlns:inkscape="http://www.inkscape.org/namespaces/inkscape"
   xmlns:sodipodi="http://sodipodi.sourceforge.net/DTD/sodipodi-0.dtd"
   xmlns="http://www.w3.org/2000/svg"
   xmlns:svg="http://www.w3.org/2000/svg"><defs
     id="defs3" /><sodipodi:namedview
     id="namedview3"
     pagecolor="#ffffff"
     bordercolor="#999999"
     borderopacity="1"
     inkscape:showpageshadow="2"
     inkscape:pageopacity="0"
     inkscape:pagecheckerboard="0"
     inkscape:deskcolor="#d1d1d1"
     inkscape:zoom="22.7"
     inkscape:cx="15.991189"
     inkscape:cy="15"
     inkscape:window-width="1440"
     inkscape:window-height="932"
     inkscape:window-x="0"
     inkscape:window-y="0"
     inkscape:window-maximized="1"
     inkscape:current-layer="svg3" /><g
     id="g2"><path
       d="M 31.203247,7.2420947 C 31.202296,6.6499703 30.721373,6.2973568 30.128298,6.2973568 H 28.673174 L 27.611532,1.5204427 C 27.490826,0.97869163 27.011804,0.59471366 26.456747,0.59471366 H 15.047659 c -0.555058,0 -1.03408,0.38397797 -1.154786,0.92572904 L 12.831231,6.2973568 H 11.42553 c -0.286083,0 -0.558859,0.090292 -0.760353,0.2917853 -0.201493,0.2014934 -0.314596,0.5160892 -0.314596,0.7565506 L 10.32682,14.851322 H 8.5380914 c -0.068432,0 -0.1416156,-0.03897 -0.1416156,-0.0979 V 8.3370022 c 0,-1.1243711 -0.9000672,-2.0396454 -2.0054295,-2.0396454 h -4.172434 c -0.7869647,0 -1.42566076,0.6386961 -1.42566076,1.4256608 0,0.7869648 0.63869606,1.4256608 1.42566076,1.4256608 h 2.3761014 c 0.6196872,0 1.141479,-0.3982346 1.3382202,-0.9504405 h 0.4581124 c 0.061779,0 0.1045484,0.071283 0.1045484,0.1387643 v 6.4173748 c 0,1.10156 0.9171751,1.997826 2.0424967,1.997826 h 1.7820756 l -0.01996,5.714048 c 0,0.282281 0.09314,0.508486 0.260421,0.677664 0.169178,0.166327 0.395383,0.261371 0.632993,0.261371 h 2.013033 c 0.493279,0 0.892464,-0.399185 0.892464,-0.891513 v -1.959808 h 13.306167 v 1.959808 c 0,0.492328 0.399185,0.891513 0.891514,0.891513 h 2.017785 c 0.236659,0 0.462864,-0.09504 0.630142,-0.261371 0.167277,-0.166327 0.262321,-0.393482 0.262321,-0.630142 z m -2.84752,8.9113303 c 0,0.855397 -0.693822,1.549218 -1.549218,1.549218 H 14.697896 c -0.855396,0 -1.549218,-0.693821 -1.549218,-1.549218 v -4.505088 c 0,-0.855396 0.693822,-1.549218 1.549218,-1.549218 h 12.108613 c 0.855396,0 1.549218,0.693822 1.549218,1.549218 z"
       id="path1"
       style="stroke-width:0.950441;fill:#e0e0e0;fill-opacity:1" /><path
       d="M 26.806509,11.049559 H 14.697896 c -0.329802,0 -0.598777,0.268975 -0.598777,0.598778 v 4.505088 c 0,0.329803 0.268975,0.598778 0.598777,0.598778 h 12.108613 c 0.329803,0 0.598777,-0.268975 0.598777,-0.598778 v -4.505088 c 0,-0.329803 -0.268974,-0.598778 -0.598777,-0.598778 z m -5.99823,4.284586 c -0.749898,0 -1.35913,-0.609232 -1.35913,-1.35913 0,-0.749897 0.609232,-1.357229 1.35913,-1.357229 0.749897,0 1.357229,0.607332 1.357229,1.357229 0,0.749898 -0.607332,1.35913 -1.357229,1.35913 z"
       id="path2"
       style="stroke-width:0.950441;fill:#e0e0e0;fill-opacity:1" /></g></svg>
