<?xml version="1.0" encoding="UTF-8" standalone="no"?>
<svg
   viewBox="0 0 30 30"
   version="1.1"
   xml:space="preserve"
   x="0px"
   y="0px"
   fill-rule="evenodd"
   clip-rule="evenodd"
   stroke-linejoin="round"
   stroke-miterlimit="2"
   id="svg2"
   sodipodi:docname="pie.svg"
   width="30"
   height="30"
   inkscape:version="1.4.2 (ebf0e940d0, 2025-05-08)"
   xmlns:inkscape="http://www.inkscape.org/namespaces/inkscape"
   xmlns:sodipodi="http://sodipodi.sourceforge.net/DTD/sodipodi-0.dtd"
   xmlns="http://www.w3.org/2000/svg"
   xmlns:svg="http://www.w3.org/2000/svg"><defs
     id="defs2" /><sodipodi:namedview
     id="namedview2"
     pagecolor="#ffffff"
     bordercolor="#999999"
     borderopacity="1"
     inkscape:showpageshadow="2"
     inkscape:pageopacity="0"
     inkscape:pagecheckerboard="0"
     inkscape:deskcolor="#d1d1d1"
     inkscape:zoom="17.025"
     inkscape:cx="14.977974"
     inkscape:cy="19.001468"
     inkscape:window-width="1440"
     inkscape:window-height="932"
     inkscape:window-x="0"
     inkscape:window-y="0"
     inkscape:window-maximized="1"
     inkscape:current-layer="svg2" /><g
     transform="translate(-49,-97)"
     id="g1"><path
       d="m 64.95301,100.69825 c 0,-0.834836 -0.365003,-1.628693 -0.999708,-2.171909 -0.634704,-0.544169 -1.475259,-0.782422 -2.300566,-0.653765 -0.0038,9.53e-4 -0.0076,0.0019 -0.01239,0.0019 -6.770184,1.14743 -11.9355,7.033224 -11.9355,14.125524 0,7.88997 6.405182,14.29515 14.295154,14.29515 7.093256,0 12.98,-5.16722 14.102646,-11.94312 0,-0.003 9.53e-4,-0.006 9.53e-4,-0.009 0.127703,-0.81863 -0.108643,-1.65252 -0.647094,-2.2815 -0.539404,-0.62994 -1.32659,-0.99209 -2.154756,-0.99209 -2.550256,-0.0229 -6.901701,-0.0229 -9.395728,-0.0229 -0.526062,0 -0.953011,-0.42695 -0.953011,-0.95301 z m 13.342144,5.79144 c 0,-2.33011 -0.925373,-4.56396 -2.573128,-6.21172 -1.647754,-1.647751 -3.88161,-2.573124 -6.211721,-2.573124 h -0.0019 c -1.46287,0 -2.649368,1.186498 -2.649368,2.649364 v 5.92773 c 0,0.75859 0.301151,1.48574 0.837696,2.02133 0.535592,0.53655 1.262738,0.8377 2.021335,0.8377 h 5.927724 c 1.46287,0 2.649368,-1.1865 2.649368,-2.64937 z"
       id="path1"
       style="stroke-width:0.95301;fill:#e0e0e0;fill-opacity:1" /></g></svg>
