<?xml version="1.0" encoding="UTF-8" standalone="no"?>
<svg
   data-name="Layer 1"
   viewBox="0 0 32.007767 31.409798"
   x="0px"
   y="0px"
   version="1.1"
   id="svg4"
   sodipodi:docname="pizza.svg"
   width="32.007767"
   height="31.409798"
   inkscape:version="1.4.2 (ebf0e940d0, 2025-05-08)"
   xmlns:inkscape="http://www.inkscape.org/namespaces/inkscape"
   xmlns:sodipodi="http://sodipodi.sourceforge.net/DTD/sodipodi-0.dtd"
   xmlns="http://www.w3.org/2000/svg"
   xmlns:svg="http://www.w3.org/2000/svg">
  <sodipodi:namedview
     id="namedview4"
     pagecolor="#ffffff"
     bordercolor="#999999"
     borderopacity="1"
     inkscape:showpageshadow="2"
     inkscape:pageopacity="0"
     inkscape:pagecheckerboard="0"
     inkscape:deskcolor="#d1d1d1"
     inkscape:zoom="15.133333"
     inkscape:cx="15.991189"
     inkscape:cy="20.187225"
     inkscape:window-width="1440"
     inkscape:window-height="932"
     inkscape:window-x="0"
     inkscape:window-y="0"
     inkscape:window-maximized="1"
     inkscape:current-layer="svg4" />
  <defs
     id="defs1">
    <style
       id="style1">.cls-1{fill-rule:evenodd;}</style>
  </defs>
  <path
     class="cls-1"
     d="m 22.991735,22.645158 c -0.957925,1.5231 -1.915849,3.027041 -2.758823,4.444769 a 2.5768166,2.5768166 0 0 1 -1.197405,-2.193647 2.6247129,2.6247129 0 0 1 2.624713,-2.615133 2.5480789,2.5480789 0 0 1 1.331515,0.364011 z"
     id="path1"
     style="stroke-width:0.957924;fill:#e0e0e0;fill-opacity:1" />
  <path
     class="cls-1"
     d="m 16.171313,14.88597 a 2.3277563,2.3277563 0 1 1 -2.318177,-2.318177 2.3181771,2.3181771 0 0 1 2.318177,2.318177 z"
     id="path2"
     style="stroke-width:0.957924;fill:#e0e0e0;fill-opacity:1" />
  <path
     class="cls-1"
     d="M 30.77966,6.2838092 C 29.093713,3.7932058 25.099168,0.66079295 15.998887,0.66079295 c -9.1002826,0 -13.0756689,3.13241285 -14.7903536,5.62301625 a 3.5443203,3.5443203 0 0 0 0,3.7454848 l 0.1532679,0.24906 C 3.2584917,7.490794 7.3775666,4.1380585 15.998887,4.1380585 c 5.287742,0 8.841642,1.2644603 11.236453,2.8737733 A 1.1878263,1.1878263 0 0 1 27.570613,8.6403032 1.1590885,1.1590885 0 0 1 25.9613,8.985156 C 23.834708,7.5482694 20.683137,6.4945526 15.998887,6.4945526 c -8.3435223,0 -11.8112087,3.4485278 -13.1810406,5.9008144 a 0.64180935,0.64180935 0 0 0 -0.057475,0.153268 L 13.010162,29.101569 a 3.5347411,3.5347411 0 0 0 5.977449,0 4.9716277,4.9716277 0 0 1 2.672609,-9.167337 4.8854145,4.8854145 0 0 1 2.567237,0.718443 c 2.615134,-4.205288 5.134475,-8.266887 6.571362,-10.613802 v 0 A 3.5060033,3.5060033 0 0 0 30.77966,6.2838092 Z M 13.853136,19.570221 a 4.6842503,4.6842503 0 1 1 4.674671,-4.684251 4.6842503,4.6842503 0 0 1 -4.674671,4.684251 z"
     id="path3"
     style="stroke-width:0.957924;fill:#e0e0e0;fill-opacity:1" />
</svg>
